<?xml version="1.0" encoding="iso-8859-1"?>
<!-- Generator: Adobe Illustrator 26.0.1, SVG Export Plug-In . SVG Version: 6.00 Build 0)  -->
<svg version="1.1" id="Layer_1" xmlns="http://www.w3.org/2000/svg" xmlns:xlink="http://www.w3.org/1999/xlink" x="0px" y="0px"
	 viewBox="0 0 500 500" style="enable-background:new 0 0 500 500;" xml:space="preserve">
<g id="watermark_1_">
	<g>
		<g id="watermark" style="opacity:0.61;">
			<g>
				<g>
					<g>
						<g>
							<polygon style="fill:#FFFFFF;" points="213.765,461.172 208.204,474.017 205.268,474.017 199.726,461.172 202.938,461.172 
								206.846,470.347 210.81,461.172 							"/>
						</g>
						<g>
							<path style="fill:#FFFFFF;" d="M223.507,469.741h-7.469c0.275,1.23,1.321,1.982,2.826,1.982c1.046,0,1.798-0.312,2.477-0.954
								l1.523,1.651c-0.917,1.046-2.294,1.597-4.074,1.597c-3.413,0-5.634-2.147-5.634-5.083c0-2.954,2.257-5.083,5.267-5.083
								c2.899,0,5.138,1.945,5.138,5.12C223.562,469.191,223.526,469.503,223.507,469.741 M216.002,468.071h4.863
								c-0.202-1.248-1.138-2.055-2.422-2.055C217.139,466.016,216.204,466.805,216.002,468.071"/>
						</g>
						<g>
							<path style="fill:#FFFFFF;" d="M224.735,468.934c0-2.973,2.294-5.083,5.505-5.083c2.074,0,3.707,0.899,4.423,2.514
								l-2.22,1.193c-0.532-0.936-1.321-1.358-2.221-1.358c-1.45,0-2.587,1.009-2.587,2.734c0,1.725,1.138,2.734,2.587,2.734
								c0.899,0,1.688-0.404,2.221-1.358l2.22,1.211c-0.716,1.578-2.349,2.495-4.423,2.495
								C227.029,474.017,224.735,471.907,224.735,468.934"/>
						</g>
						<g>
							<path style="fill:#FFFFFF;" d="M242.828,473.393c-0.587,0.422-1.45,0.624-2.331,0.624c-2.33,0-3.688-1.193-3.688-3.542
								v-4.055h-1.523v-2.202h1.523v-2.404h2.863v2.404h2.459v2.202h-2.459v4.019c0,0.844,0.458,1.303,1.229,1.303
								c0.422,0,0.844-0.128,1.156-0.367L242.828,473.393z"/>
						</g>
					</g>
					<g>
						<path style="fill:#FFFFFF;" d="M262.474,463.997v2.643c-0.238-0.018-0.422-0.037-0.642-0.037
							c-1.578,0-2.624,0.862-2.624,2.753v4.661h-2.863v-9.873h2.734v1.303C259.776,464.493,260.951,463.997,262.474,463.997"/>
					</g>
					<g>
						<path style="fill:#FFFFFF;" d="M263.299,472.53l1.009-2.239c1.083,0.789,2.697,1.339,4.239,1.339
							c1.762,0,2.477-0.587,2.477-1.376c0-2.404-7.469-0.752-7.469-5.524c0-2.184,1.762-4,5.413-4c1.615,0,3.267,0.385,4.459,1.138
							l-0.918,2.257c-1.193-0.679-2.422-1.009-3.56-1.009c-1.761,0-2.44,0.66-2.44,1.468c0,2.367,7.468,0.734,7.468,5.45
							c0,2.147-1.78,3.982-5.45,3.982C266.492,474.017,264.437,473.411,263.299,472.53"/>
					</g>
					<g>
						<path style="fill:#FFFFFF;" d="M285.428,469.741h-7.469c0.275,1.23,1.321,1.982,2.826,1.982c1.046,0,1.798-0.312,2.477-0.954
							l1.523,1.651c-0.918,1.046-2.294,1.597-4.074,1.597c-3.413,0-5.634-2.147-5.634-5.083c0-2.954,2.257-5.083,5.267-5.083
							c2.9,0,5.138,1.945,5.138,5.12C285.484,469.191,285.447,469.503,285.428,469.741 M277.923,468.071h4.863
							c-0.202-1.248-1.138-2.055-2.422-2.055C279.061,466.016,278.125,466.805,277.923,468.071"/>
					</g>
					<g>
						<path style="fill:#FFFFFF;" d="M297.007,469.741h-7.469c0.275,1.23,1.321,1.982,2.826,1.982c1.046,0,1.798-0.312,2.477-0.954
							l1.523,1.651c-0.918,1.046-2.294,1.597-4.074,1.597c-3.413,0-5.634-2.147-5.634-5.083c0-2.954,2.257-5.083,5.267-5.083
							c2.899,0,5.138,1.945,5.138,5.12C297.062,469.191,297.025,469.503,297.007,469.741 M289.501,468.071h4.863
							c-0.202-1.248-1.138-2.055-2.422-2.055C290.639,466.016,289.703,466.805,289.501,468.071"/>
					</g>
					<g>
						<polygon style="fill:#FFFFFF;" points="303.208,470.145 301.831,471.503 301.831,474.017 298.969,474.017 298.969,460.401 
							301.831,460.401 301.831,468.108 306.016,464.144 309.429,464.144 305.318,468.328 309.796,474.017 306.327,474.017 						"/>
					</g>
					<g>
						<path style="fill:#FFFFFF;" d="M256.601,475.359L256.601,475.359l-2.86-2.86c-0.435,0.508-0.953,0.943-1.534,1.284
							c-0.092,0.069-0.186,0.136-0.283,0.199l3.027,3.027c0.456,0.456,1.195,0.456,1.65,0
							C257.057,476.554,257.057,475.815,256.601,475.359"/>
					</g>
					<g>
						<path style="fill:#FFFFFF;" d="M249.984,463.244c0.221-0.173,0.495-0.281,0.797-0.281c0.042,0,0.083,0.002,0.124,0.006
							c-0.214-0.156-0.478-0.249-0.764-0.249c-0.395,0-0.744,0.18-0.981,0.458c-0.051,0-0.1,0.006-0.151,0.008
							c0.039-0.077,0.064-0.162,0.064-0.255c0-0.234-0.143-0.434-0.346-0.519c0.087,0.126,0.138,0.279,0.138,0.445
							c0,0.122-0.031,0.237-0.081,0.341c-2.811,0.201-5.03,2.539-5.03,5.4c0,2.993,2.426,5.42,5.42,5.42
							c2.993,0,5.42-2.426,5.42-5.42C254.595,465.879,252.593,463.635,249.984,463.244 M247.983,464.656
							c0.435,0,0.844,0.112,1.199,0.309c0.374-0.245,0.82-0.387,1.299-0.387c0.711,0,1.348,0.312,1.784,0.806
							c-0.435-0.379-1.004-0.61-1.627-0.61c-0.449,0-0.87,0.12-1.234,0.329c-0.079,0.046-0.156,0.096-0.229,0.15
							c-0.065-0.048-0.133-0.093-0.204-0.134c-0.369-0.219-0.8-0.344-1.26-0.344c-0.3,0-0.588,0.054-0.854,0.152
							C247.196,464.754,247.578,464.656,247.983,464.656 M251.772,469.098c0.115,0.305,0.181,0.634,0.181,0.979
							c0,1.534-1.244,2.777-2.778,2.777c-1.534,0-2.777-1.243-2.777-2.777c0-0.345,0.066-0.674,0.181-0.979
							c-0.62-0.382-1.035-1.064-1.035-1.846c0-1.197,0.971-2.168,2.168-2.168c0.565,0,1.078,0.218,1.463,0.572
							c0.386-0.354,0.899-0.572,1.464-0.572c1.197,0,2.168,0.971,2.168,2.168C252.807,468.034,252.392,468.716,251.772,469.098"/>
					</g>
					<g>
						<path style="fill:#FFFFFF;" d="M251.666,467.061c0,0.497-0.404,0.901-0.901,0.901c-0.497,0-0.901-0.404-0.901-0.901
							s0.404-0.901,0.901-0.901c0.101,0,0.197,0.017,0.287,0.047c-0.03,0.062-0.045,0.132-0.045,0.204
							c0,0.273,0.221,0.494,0.494,0.494c0.05,0,0.099-0.008,0.146-0.022C251.66,466.941,251.666,467,251.666,467.061"/>
					</g>
					<g>
						<path style="fill:#FFFFFF;" d="M248.255,467.061c0,0.376-0.305,0.681-0.681,0.681c-0.376,0-0.681-0.305-0.681-0.681
							s0.305-0.681,0.681-0.681c0.076,0,0.149,0.013,0.217,0.035c-0.023,0.047-0.034,0.1-0.034,0.155
							c0,0.206,0.167,0.374,0.374,0.374c0.038,0,0.075-0.006,0.11-0.017C248.25,466.97,248.255,467.015,248.255,467.061"/>
					</g>
					<g>
						<g>
							<g>
								<rect x="242.908" y="467.83" style="fill:#FFFFFF;" width="0.616" height="0.616"/>
							</g>
							<g>
								<rect x="254.827" y="467.83" style="fill:#FFFFFF;" width="0.616" height="0.616"/>
							</g>
							<g>
								<path style="fill:#FFFFFF;" d="M255.205,468.082h-0.14c0-3.248-2.642-5.89-5.89-5.89c-3.248,0-5.89,2.642-5.89,5.89h-0.14
									c0-1.611,0.627-3.125,1.766-4.264c1.139-1.139,2.653-1.766,4.264-1.766c1.611,0,3.125,0.627,4.264,1.766
									C254.578,464.957,255.205,466.471,255.205,468.082"/>
							</g>
						</g>
						<g>
							<rect x="248.868" y="461.814" style="fill:#FFFFFF;" width="0.616" height="0.616"/>
						</g>
						<g>
							<rect x="244.95" y="462.052" style="fill:#FFFFFF;" width="8.45" height="0.14"/>
						</g>
						<g>
							<path style="fill:#FFFFFF;" d="M245.174,462.15c0,0.108-0.088,0.196-0.196,0.196c-0.108,0-0.196-0.088-0.196-0.196
								c0-0.108,0.088-0.196,0.196-0.196C245.086,461.954,245.174,462.042,245.174,462.15"/>
						</g>
						<g>
							<path style="fill:#FFFFFF;" d="M253.596,462.15c0,0.108-0.088,0.196-0.196,0.196c-0.108,0-0.196-0.088-0.196-0.196
								c0-0.108,0.088-0.196,0.196-0.196C253.509,461.954,253.596,462.042,253.596,462.15"/>
						</g>
					</g>
				</g>
				<g>
					<path style="fill:#FFFFFF;" d="M314.356,473.409c0,1.559-2.364,1.559-2.364,0C311.993,471.851,314.356,471.851,314.356,473.409
						z"/>
				</g>
				<g>
					<g>
						<g>
							<path style="fill:#FFFFFF;" d="M161.739,466.549l1.772,6.088l1.855-6.088h2.215l-2.823,8.14h-2.33l-0.837-2.396l-0.722-2.708
								l-0.722,2.708l-0.837,2.396h-2.33l-2.839-8.14h2.231l1.855,6.088l1.756-6.088H161.739z"/>
						</g>
						<g>
							<path style="fill:#FFFFFF;" d="M176.713,466.549l1.772,6.088l1.855-6.088h2.215l-2.823,8.14h-2.33l-0.837-2.396l-0.722-2.708
								l-0.722,2.708l-0.837,2.396h-2.33l-2.839-8.14h2.231l1.855,6.088l1.756-6.088H176.713z"/>
						</g>
						<g>
							<path style="fill:#FFFFFF;" d="M191.687,466.549l1.772,6.088l1.855-6.088h2.215l-2.823,8.14h-2.33l-0.837-2.396l-0.722-2.708
								l-0.722,2.708l-0.837,2.396h-2.33l-2.839-8.14h2.231l1.855,6.088l1.756-6.088H191.687z"/>
						</g>
					</g>
					<g>
						<path style="fill:#FFFFFF;" d="M200.908,473.52c0,1.559-2.364,1.559-2.364,0C198.545,471.962,200.908,471.962,200.908,473.52z
							"/>
					</g>
					<g>
						<path style="fill:#FFFFFF;" d="M322.71,473.409c-0.935,0.919-1.919,1.28-3.117,1.28c-2.346,0-4.3-1.411-4.3-4.282
							s1.953-4.284,4.3-4.284c1.149,0,2.035,0.329,2.921,1.199l-1.264,1.329c-0.476-0.428-1.066-0.64-1.623-0.64
							c-1.346,0-2.33,0.985-2.33,2.396c0,1.542,1.05,2.362,2.297,2.362c0.64,0,1.28-0.18,1.772-0.672L322.71,473.409z"/>
					</g>
					<g>
						<path style="fill:#FFFFFF;" d="M331.805,470.472c0,2.33-1.591,4.217-4.217,4.217c-2.626,0-4.201-1.887-4.201-4.217
							c0-2.314,1.609-4.217,4.185-4.217C330.149,466.255,331.805,468.158,331.805,470.472z M325.389,470.472
							c0,1.231,0.739,2.38,2.199,2.38c1.46,0,2.199-1.149,2.199-2.38c0-1.215-0.854-2.396-2.199-2.396
							C326.144,468.077,325.389,469.258,325.389,470.472z"/>
					</g>
					<g>
						<path style="fill:#FFFFFF;" d="M338.572,474.689v-4.332c0-1.068-0.559-2.035-1.658-2.035c-1.082,0-1.722,0.967-1.722,2.035
							v4.332h-2.003v-8.107h1.855l0.148,0.985c0.426-0.82,1.362-1.116,2.133-1.116c0.969,0,1.937,0.394,2.396,1.51
							c0.723-1.149,1.658-1.478,2.708-1.478c2.297,0,3.43,1.412,3.43,3.84v4.365h-2.003v-4.365c0-1.066-0.442-1.97-1.526-1.97
							c-1.082,0-1.756,0.935-1.756,2.003v4.332H338.572z"/>
					</g>
				</g>
			</g>
		</g>
		<g style="opacity:0.61;">
			<g>
				<g>
					<path style="fill:#FFFFFF;" d="M345.988,431.299c-0.006-1.224-0.959-2.121-2.189-2.14c-0.924-0.014-0.832,0.12-0.834-0.867
						c-0.003-1.097-0.007-2.194,0.003-3.292c0.003-0.379-0.112-0.691-0.362-0.976c-2.342-2.668-4.678-5.342-7.019-8.011
						c-0.12-0.137-0.275-0.244-0.414-0.366c-6.214,0-12.427,0-18.641,0c-0.794,0.293-1.14,0.868-1.138,1.709
						c0.01,3.748,0.004,7.496,0.004,11.243c0,0.556-0.003,0.589-0.55,0.551c-1.497-0.102-2.516,0.986-2.497,2.492
						c0.044,3.476,0.013,6.953,0.014,10.429c0.001,1.58,0.867,2.443,2.45,2.449c0.582,0.002,0.582,0.002,0.582,0.6
						c0,2.219-0.001,4.438,0.001,6.657c0.001,1.192,0.58,1.771,1.768,1.771c8.013,0.001,16.027,0.001,24.04,0
						c1.168,0,1.755-0.583,1.757-1.745c0.002-2.256,0-4.512,0.001-6.768c0-0.512,0.002-0.511,0.52-0.515
						c0.271-0.002,0.541,0.008,0.809-0.058c0.996-0.246,1.69-1.044,1.694-2.069C346.003,438.696,346.005,434.997,345.988,431.299z
						 M317.537,417.162c5.337,0,10.674,0,16.01,0c0.548,0,0.554,0.007,0.554,0.561c0.001,2.243-0.001,4.486,0.001,6.73
						c0.001,0.811,0.249,1.059,1.06,1.059c1.91,0.001,3.821,0,5.731,0.001c0.458,0,0.479,0.021,0.481,0.483
						c0.003,0.887,0.002,1.775,0,2.662c-0.001,0.477-0.024,0.498-0.504,0.499c-3.895,0.001-7.79,0-11.684,0
						c-3.882,0-7.765,0-11.647,0c-0.55,0-0.552-0.001-0.552-0.561c-0.001-3.624-0.001-7.247,0-10.871
						C316.987,417.166,316.991,417.162,317.537,417.162z M340.822,451.579c-3.883,0.001-7.766,0-11.65,0c-3.871,0-7.742,0-11.613,0
						c-0.572,0-0.574-0.002-0.574-0.579c-0.001-1.997-0.001-3.994,0.001-5.991c0-0.464,0.023-0.486,0.478-0.487
						c7.803-0.001,15.607-0.001,23.41,0c0.478,0,0.499,0.02,0.499,0.503c0.002,1.997,0.001,3.994,0,5.991
						C341.375,451.574,341.37,451.579,340.822,451.579z"/>
				</g>
				<g>
					<g>
						<rect x="327.418" y="417.053" style="fill:#FFFFFF;" width="1.757" height="1.054"/>
					</g>
					<g>
						<rect x="325.662" y="418.107" style="fill:#FFFFFF;" width="1.757" height="1.054"/>
					</g>
					<g>
						<rect x="327.418" y="419.161" style="fill:#FFFFFF;" width="1.757" height="1.054"/>
					</g>
					<g>
						<rect x="325.662" y="420.215" style="fill:#FFFFFF;" width="1.757" height="1.054"/>
					</g>
					<g>
						<rect x="327.418" y="421.269" style="fill:#FFFFFF;" width="1.757" height="1.054"/>
					</g>
					<g>
						<rect x="325.662" y="422.323" style="fill:#FFFFFF;" width="1.757" height="1.054"/>
					</g>
					<g>
						<rect x="327.418" y="423.378" style="fill:#FFFFFF;" width="1.757" height="1.054"/>
					</g>
					<g>
						<rect x="325.662" y="424.432" style="fill:#FFFFFF;" width="1.757" height="1.054"/>
					</g>
					<g>
						<rect x="327.418" y="425.486" style="fill:#FFFFFF;" width="1.757" height="1.054"/>
					</g>
					<g>
						<rect x="325.662" y="426.54" style="fill:#FFFFFF;" width="1.757" height="1.054"/>
					</g>
					<g>
						<rect x="327.418" y="427.594" style="fill:#FFFFFF;" width="1.757" height="1.054"/>
					</g>
					<g>
						<rect x="325.662" y="428.648" style="fill:#FFFFFF;" width="1.757" height="1.054"/>
					</g>
				</g>
			</g>
			<g>
				<path style="fill:#FFFFFF;" d="M187.637,431.299c-0.006-1.224-0.959-2.121-2.189-2.14c-0.924-0.014-0.832,0.12-0.834-0.867
					c-0.003-1.097-0.007-2.194,0.003-3.292c0.003-0.379-0.112-0.691-0.362-0.976c-2.342-2.668-4.678-5.342-7.019-8.011
					c-0.12-0.137-0.275-0.244-0.414-0.366c-6.214,0-12.427,0-18.641,0c-0.794,0.293-1.14,0.868-1.138,1.709
					c0.01,3.748,0.004,7.496,0.004,11.243c0,0.556-0.003,0.589-0.55,0.551c-1.497-0.102-2.516,0.986-2.497,2.492
					c0.044,3.476,0.013,6.953,0.014,10.429c0.001,1.58,0.867,2.443,2.45,2.449c0.582,0.002,0.582,0.002,0.582,0.6
					c0,2.219-0.001,4.438,0.001,6.657c0.001,1.192,0.58,1.771,1.768,1.771c8.013,0.001,16.027,0.001,24.04,0
					c1.168,0,1.755-0.583,1.757-1.745c0.002-2.256,0-4.512,0.001-6.768c0-0.512,0.002-0.511,0.52-0.515
					c0.271-0.002,0.541,0.008,0.809-0.058c0.996-0.246,1.69-1.044,1.694-2.069C187.652,438.696,187.655,434.997,187.637,431.299z
					 M159.187,417.162c5.337,0,10.674,0,16.01,0c0.548,0,0.554,0.007,0.554,0.561c0.001,2.243-0.001,4.486,0.001,6.73
					c0.001,0.811,0.249,1.059,1.06,1.059c1.91,0.001,3.821,0,5.731,0.001c0.458,0,0.479,0.021,0.481,0.483
					c0.003,0.887,0.002,1.775,0,2.662c-0.001,0.477-0.024,0.498-0.504,0.499c-3.895,0.001-7.79,0-11.684,0
					c-3.882,0-7.765,0-11.647,0c-0.55,0-0.552-0.001-0.552-0.561c-0.001-3.624-0.001-7.247,0-10.871
					C158.636,417.166,158.64,417.162,159.187,417.162z M182.472,451.579c-3.883,0.001-7.766,0-11.65,0c-3.871,0-7.742,0-11.613,0
					c-0.572,0-0.574-0.002-0.574-0.579c-0.001-1.997-0.001-3.994,0.001-5.991c0-0.464,0.023-0.486,0.478-0.487
					c7.803-0.001,15.607-0.001,23.41,0c0.478,0,0.499,0.02,0.499,0.503c0.002,1.997,0.001,3.994,0,5.991
					C183.024,451.574,183.019,451.579,182.472,451.579z"/>
			</g>
			<g>
				<path style="fill:#FFFFFF;" d="M159.779,440.669v-7.897h2.779c0.375,0,0.726,0.061,1.053,0.182
					c0.327,0.121,0.612,0.292,0.855,0.513c0.242,0.221,0.434,0.483,0.573,0.789c0.14,0.305,0.21,0.642,0.21,1.009
					c0,0.375-0.07,0.715-0.21,1.02c-0.14,0.305-0.331,0.568-0.573,0.789c-0.243,0.221-0.528,0.392-0.855,0.513
					c-0.327,0.121-0.678,0.182-1.053,0.182h-1.29v2.901H159.779z M162.58,436.356c0.39,0,0.684-0.111,0.882-0.331
					c0.199-0.22,0.298-0.474,0.298-0.761c0-0.14-0.024-0.276-0.072-0.408c-0.048-0.132-0.121-0.248-0.221-0.347
					c-0.099-0.099-0.223-0.178-0.37-0.237c-0.147-0.059-0.32-0.089-0.518-0.089h-1.312v2.173H162.58z"/>
				<path style="fill:#FFFFFF;" d="M166.308,432.771h1.731l3.177,5.294h0.088l-0.088-1.522v-3.772h1.478v7.897h-1.566l-3.353-5.592
					h-0.088l0.088,1.522v4.07h-1.467V432.771z"/>
				<path style="fill:#FFFFFF;" d="M177.922,436.334h3.872c0.022,0.089,0.04,0.195,0.055,0.32c0.014,0.125,0.022,0.25,0.022,0.375
					c0,0.507-0.077,0.985-0.231,1.434c-0.154,0.449-0.397,0.849-0.728,1.202c-0.353,0.375-0.776,0.666-1.268,0.871
					c-0.493,0.206-1.055,0.309-1.688,0.309c-0.574,0-1.114-0.103-1.622-0.309c-0.507-0.206-0.948-0.492-1.323-0.86
					c-0.375-0.367-0.673-0.803-0.894-1.307c-0.221-0.504-0.331-1.053-0.331-1.649c0-0.595,0.11-1.145,0.331-1.649
					c0.221-0.504,0.518-0.939,0.894-1.307c0.375-0.367,0.816-0.654,1.323-0.86c0.507-0.206,1.048-0.309,1.622-0.309
					c0.64,0,1.211,0.11,1.715,0.331c0.504,0.221,0.935,0.526,1.296,0.915l-1.025,1.004c-0.258-0.272-0.544-0.48-0.861-0.623
					c-0.316-0.143-0.695-0.215-1.136-0.215c-0.361,0-0.703,0.065-1.026,0.193c-0.324,0.129-0.607,0.311-0.85,0.546
					c-0.242,0.235-0.436,0.52-0.579,0.855c-0.143,0.335-0.215,0.708-0.215,1.119c0,0.412,0.072,0.785,0.215,1.12
					c0.143,0.335,0.338,0.62,0.584,0.855c0.246,0.235,0.531,0.418,0.855,0.546c0.323,0.129,0.669,0.193,1.037,0.193
					c0.419,0,0.773-0.061,1.064-0.182c0.29-0.121,0.538-0.278,0.744-0.469c0.148-0.132,0.275-0.3,0.381-0.502
					c0.106-0.202,0.189-0.428,0.248-0.678h-2.482V436.334z"/>
			</g>
			<g>
				<path style="fill:#FFFFFF;" d="M224.019,431.299c-0.006-1.224-0.959-2.121-2.189-2.14c-0.924-0.014-0.832,0.12-0.834-0.867
					c-0.003-1.097-0.007-2.194,0.003-3.292c0.003-0.379-0.112-0.691-0.362-0.976c-2.342-2.668-4.678-5.342-7.019-8.011
					c-0.12-0.137-0.275-0.244-0.414-0.366c-6.214,0-12.427,0-18.641,0c-0.794,0.293-1.14,0.868-1.138,1.709
					c0.01,3.748,0.004,7.496,0.004,11.243c0,0.556-0.003,0.589-0.55,0.551c-1.497-0.102-2.516,0.986-2.497,2.492
					c0.044,3.476,0.013,6.953,0.014,10.429c0.001,1.58,0.867,2.443,2.45,2.449c0.582,0.002,0.582,0.002,0.582,0.6
					c0,2.219-0.001,4.438,0.001,6.657c0.001,1.192,0.58,1.771,1.768,1.771c8.013,0.001,16.027,0.001,24.04,0
					c1.168,0,1.755-0.583,1.757-1.745c0.002-2.256,0-4.512,0.001-6.768c0-0.512,0.002-0.511,0.52-0.515
					c0.271-0.002,0.541,0.008,0.809-0.058c0.997-0.246,1.69-1.044,1.694-2.069C224.034,438.696,224.036,434.997,224.019,431.299z
					 M195.568,417.162c5.337,0,10.674,0,16.01,0c0.548,0,0.554,0.007,0.554,0.561c0.001,2.243-0.001,4.486,0.001,6.73
					c0.001,0.811,0.249,1.059,1.06,1.059c1.91,0.001,3.821,0,5.731,0.001c0.458,0,0.479,0.021,0.481,0.483
					c0.003,0.887,0.002,1.775,0,2.662c-0.001,0.477-0.024,0.498-0.504,0.499c-3.895,0.001-7.79,0-11.684,0
					c-3.882,0-7.765,0-11.647,0c-0.55,0-0.552-0.001-0.552-0.561c-0.001-3.624-0.001-7.247,0-10.871
					C195.018,417.166,195.022,417.162,195.568,417.162z M218.854,451.579c-3.883,0.001-7.766,0-11.65,0c-3.871,0-7.742,0-11.613,0
					c-0.572,0-0.574-0.002-0.574-0.579c-0.001-1.997-0.001-3.994,0.001-5.991c0-0.464,0.023-0.486,0.478-0.487
					c7.803-0.001,15.607-0.001,23.41,0c0.478,0,0.499,0.02,0.499,0.503c0.002,1.997,0.001,3.994,0,5.991
					C219.406,451.574,219.401,451.579,218.854,451.579z"/>
			</g>
			<g>
				<path style="fill:#FFFFFF;" d="M205.111,432.771h1.699l2.967,7.897h-1.644l-0.651-1.886h-3.044l-0.651,1.886h-1.643
					L205.111,432.771z M206.997,437.415l-0.706-1.974l-0.287-0.96h-0.088l-0.287,0.96l-0.706,1.974H206.997z"/>
				<path style="fill:#FFFFFF;" d="M211.331,434.536c-0.125,0-0.245-0.024-0.359-0.072c-0.114-0.048-0.213-0.114-0.298-0.199
					c-0.084-0.084-0.151-0.182-0.198-0.292c-0.048-0.11-0.072-0.232-0.072-0.364s0.024-0.254,0.072-0.364
					c0.048-0.11,0.114-0.208,0.198-0.292c0.084-0.084,0.184-0.151,0.298-0.198c0.114-0.048,0.233-0.072,0.359-0.072
					c0.257,0,0.478,0.09,0.662,0.27c0.184,0.181,0.276,0.399,0.276,0.656s-0.092,0.476-0.276,0.656
					C211.809,434.446,211.589,434.536,211.331,434.536z M210.615,440.669v-5.404h1.445v5.404H210.615z"/>
			</g>
			<g>
				<path style="fill:#FFFFFF;" d="M261.044,431.299c-0.006-1.224-0.959-2.121-2.189-2.14c-0.924-0.014-0.832,0.12-0.834-0.867
					c-0.003-1.097-0.007-2.194,0.003-3.292c0.003-0.379-0.112-0.691-0.362-0.976c-2.342-2.668-4.678-5.342-7.019-8.011
					c-0.12-0.137-0.275-0.244-0.414-0.366c-6.214,0-12.427,0-18.641,0c-0.794,0.293-1.14,0.868-1.138,1.709
					c0.01,3.748,0.004,7.496,0.004,11.243c0,0.556-0.003,0.589-0.55,0.551c-1.497-0.102-2.516,0.986-2.497,2.492
					c0.044,3.476,0.013,6.953,0.014,10.429c0.001,1.58,0.867,2.443,2.45,2.449c0.582,0.002,0.582,0.002,0.582,0.6
					c0,2.219-0.001,4.438,0.001,6.657c0.001,1.192,0.58,1.771,1.768,1.771c8.013,0.001,16.027,0.001,24.04,0
					c1.168,0,1.755-0.583,1.757-1.745c0.002-2.256,0-4.512,0.001-6.768c0-0.512,0.002-0.511,0.52-0.515
					c0.271-0.002,0.541,0.008,0.809-0.058c0.996-0.246,1.69-1.044,1.694-2.069C261.059,438.696,261.061,434.997,261.044,431.299z
					 M232.593,417.162c5.337,0,10.674,0,16.01,0c0.548,0,0.554,0.007,0.554,0.561c0.001,2.243-0.001,4.486,0.001,6.73
					c0.001,0.811,0.249,1.059,1.06,1.059c1.91,0.001,3.821,0,5.731,0.001c0.458,0,0.479,0.021,0.481,0.483
					c0.003,0.887,0.002,1.775,0,2.662c-0.001,0.477-0.024,0.498-0.504,0.499c-3.895,0.001-7.79,0-11.684,0
					c-3.882,0-7.765,0-11.647,0c-0.55,0-0.552-0.001-0.552-0.561c-0.001-3.624-0.001-7.247,0-10.871
					C232.042,417.166,232.047,417.162,232.593,417.162z M255.878,451.579c-3.883,0.001-7.766,0-11.65,0c-3.871,0-7.742,0-11.613,0
					c-0.572,0-0.574-0.002-0.574-0.579c-0.001-1.997-0.001-3.994,0.001-5.991c0-0.464,0.023-0.486,0.478-0.487
					c7.803-0.001,15.607-0.001,23.41,0c0.478,0,0.499,0.02,0.499,0.503c0.002,1.997,0.001,3.994,0,5.991
					C256.431,451.574,256.426,451.579,255.878,451.579z"/>
			</g>
			<g>
				<path style="fill:#FFFFFF;" d="M236.361,440.845c-0.338,0-0.662-0.048-0.971-0.143c-0.309-0.095-0.592-0.239-0.849-0.43
					c-0.257-0.191-0.481-0.425-0.673-0.7c-0.191-0.276-0.342-0.597-0.452-0.965l1.401-0.551c0.103,0.397,0.283,0.726,0.54,0.987
					c0.257,0.261,0.596,0.392,1.015,0.392c0.154,0,0.303-0.02,0.447-0.061c0.143-0.04,0.272-0.099,0.386-0.176
					s0.204-0.175,0.27-0.292c0.066-0.118,0.099-0.254,0.099-0.408c0-0.147-0.026-0.279-0.077-0.397
					c-0.051-0.117-0.138-0.227-0.259-0.331c-0.121-0.103-0.28-0.202-0.475-0.298c-0.195-0.095-0.435-0.195-0.722-0.298l-0.485-0.176
					c-0.213-0.073-0.429-0.173-0.645-0.298c-0.217-0.125-0.413-0.276-0.59-0.452c-0.177-0.176-0.322-0.384-0.436-0.623
					c-0.114-0.239-0.171-0.509-0.171-0.81c0-0.309,0.06-0.597,0.182-0.866c0.121-0.268,0.294-0.503,0.518-0.706
					c0.224-0.202,0.492-0.36,0.805-0.474s0.66-0.171,1.042-0.171c0.397,0,0.74,0.053,1.031,0.16
					c0.291,0.107,0.537,0.243,0.739,0.408c0.202,0.165,0.366,0.348,0.491,0.546c0.125,0.199,0.217,0.386,0.276,0.563l-1.312,0.551
					c-0.074-0.221-0.208-0.419-0.402-0.596c-0.195-0.176-0.462-0.265-0.8-0.265c-0.324,0-0.592,0.075-0.805,0.226
					c-0.213,0.151-0.32,0.348-0.32,0.59c0,0.235,0.103,0.436,0.309,0.601c0.206,0.165,0.533,0.325,0.982,0.48l0.497,0.165
					c0.316,0.111,0.605,0.237,0.866,0.381c0.261,0.143,0.485,0.314,0.673,0.513c0.187,0.199,0.331,0.425,0.43,0.678
					c0.1,0.254,0.149,0.546,0.149,0.877c0,0.412-0.083,0.767-0.248,1.064c-0.165,0.298-0.377,0.542-0.634,0.734
					c-0.258,0.191-0.548,0.335-0.872,0.43C236.986,440.797,236.67,440.845,236.361,440.845z"/>
				<path style="fill:#FFFFFF;" d="M239.516,432.771h1.61l1.633,4.754l0.287,1.015h0.088l0.309-1.015l1.699-4.754h1.61l-2.879,7.897
					h-1.566L239.516,432.771z"/>
				<path style="fill:#FFFFFF;" d="M251.097,436.334h3.871c0.022,0.089,0.04,0.195,0.055,0.32c0.015,0.125,0.023,0.25,0.023,0.375
					c0,0.507-0.078,0.985-0.232,1.434c-0.154,0.449-0.397,0.849-0.728,1.202c-0.353,0.375-0.775,0.666-1.268,0.871
					c-0.493,0.206-1.055,0.309-1.688,0.309c-0.574,0-1.114-0.103-1.621-0.309c-0.507-0.206-0.949-0.492-1.324-0.86
					c-0.375-0.367-0.673-0.803-0.894-1.307c-0.22-0.504-0.331-1.053-0.331-1.649c0-0.595,0.11-1.145,0.331-1.649
					c0.221-0.504,0.518-0.939,0.894-1.307c0.375-0.367,0.816-0.654,1.324-0.86c0.507-0.206,1.047-0.309,1.621-0.309
					c0.64,0,1.211,0.11,1.715,0.331c0.504,0.221,0.936,0.526,1.296,0.915l-1.026,1.004c-0.257-0.272-0.544-0.48-0.861-0.623
					c-0.316-0.143-0.694-0.215-1.136-0.215c-0.36,0-0.702,0.065-1.026,0.193c-0.323,0.129-0.607,0.311-0.849,0.546
					c-0.243,0.235-0.436,0.52-0.579,0.855c-0.143,0.335-0.215,0.708-0.215,1.119c0,0.412,0.072,0.785,0.215,1.12
					c0.143,0.335,0.338,0.62,0.585,0.855c0.246,0.235,0.531,0.418,0.854,0.546c0.324,0.129,0.669,0.193,1.037,0.193
					c0.419,0,0.774-0.061,1.064-0.182c0.29-0.121,0.539-0.278,0.745-0.469c0.147-0.132,0.274-0.3,0.38-0.502
					c0.107-0.202,0.189-0.428,0.248-0.678h-2.482V436.334z"/>
			</g>
			<g>
				<path style="fill:#FFFFFF;" d="M297.3,431.299c-0.006-1.224-0.959-2.121-2.189-2.14c-0.924-0.014-0.832,0.12-0.834-0.867
					c-0.003-1.097-0.007-2.194,0.003-3.292c0.003-0.379-0.112-0.691-0.362-0.976c-2.342-2.668-4.678-5.342-7.019-8.011
					c-0.12-0.137-0.275-0.244-0.414-0.366c-6.214,0-12.427,0-18.641,0c-0.794,0.293-1.14,0.868-1.138,1.709
					c0.01,3.748,0.004,7.496,0.004,11.243c0,0.556-0.003,0.589-0.55,0.551c-1.497-0.102-2.516,0.986-2.497,2.492
					c0.044,3.476,0.013,6.953,0.014,10.429c0.001,1.58,0.867,2.443,2.45,2.449c0.582,0.002,0.582,0.002,0.582,0.6
					c0,2.219-0.001,4.438,0.001,6.657c0.001,1.192,0.58,1.771,1.768,1.771c8.013,0.001,16.027,0.001,24.04,0
					c1.168,0,1.755-0.583,1.757-1.745c0.002-2.256,0-4.512,0.001-6.768c0-0.512,0.002-0.511,0.52-0.515
					c0.271-0.002,0.541,0.008,0.809-0.058c0.996-0.246,1.69-1.044,1.694-2.069C297.315,438.696,297.318,434.997,297.3,431.299z
					 M268.85,417.162c5.337,0,10.674,0,16.01,0c0.548,0,0.554,0.007,0.554,0.561c0.001,2.243-0.001,4.486,0.001,6.73
					c0.001,0.811,0.249,1.059,1.06,1.059c1.91,0.001,3.821,0,5.731,0.001c0.458,0,0.479,0.021,0.481,0.483
					c0.003,0.887,0.002,1.775,0,2.662c-0.001,0.477-0.024,0.498-0.504,0.499c-3.895,0.001-7.79,0-11.684,0
					c-3.882,0-7.765,0-11.647,0c-0.55,0-0.552-0.001-0.552-0.561c-0.001-3.624-0.001-7.247,0-10.871
					C268.299,417.166,268.303,417.162,268.85,417.162z M292.135,451.579c-3.883,0.001-7.766,0-11.65,0c-3.871,0-7.742,0-11.613,0
					c-0.572,0-0.574-0.002-0.574-0.579c-0.001-1.997-0.001-3.994,0.001-5.991c0-0.464,0.023-0.486,0.478-0.487
					c7.803-0.001,15.607-0.001,23.41,0c0.478,0,0.499,0.02,0.499,0.503c0.001,1.997,0.001,3.994,0,5.991
					C292.687,451.574,292.682,451.579,292.135,451.579z"/>
			</g>
			<g>
				<path style="fill:#FFFFFF;" d="M272.966,434.183v1.831h3.165v1.412h-3.165v1.831h3.518v1.412h-5.007v-7.897h5.007v1.412H272.966
					z"/>
				<path style="fill:#FFFFFF;" d="M277.852,440.669v-7.897h2.779c0.375,0,0.726,0.061,1.053,0.182
					c0.327,0.121,0.612,0.292,0.855,0.513c0.243,0.221,0.434,0.483,0.574,0.789c0.14,0.305,0.209,0.642,0.209,1.009
					c0,0.375-0.07,0.715-0.209,1.02c-0.14,0.305-0.331,0.568-0.574,0.789c-0.243,0.221-0.528,0.392-0.855,0.513
					c-0.327,0.121-0.678,0.182-1.053,0.182h-1.29v2.901H277.852z M280.653,436.356c0.389,0,0.684-0.111,0.882-0.331
					c0.199-0.22,0.298-0.474,0.298-0.761c0-0.14-0.024-0.276-0.072-0.408c-0.048-0.132-0.121-0.248-0.221-0.347
					c-0.099-0.099-0.222-0.178-0.37-0.237c-0.147-0.059-0.32-0.089-0.518-0.089h-1.312v2.173H280.653z"/>
				<path style="fill:#FFFFFF;" d="M286.797,440.845c-0.338,0-0.662-0.048-0.971-0.143c-0.309-0.095-0.592-0.239-0.849-0.43
					c-0.257-0.191-0.482-0.425-0.673-0.7c-0.191-0.276-0.342-0.597-0.452-0.965l1.401-0.551c0.103,0.397,0.283,0.726,0.541,0.987
					c0.257,0.261,0.595,0.392,1.015,0.392c0.154,0,0.303-0.02,0.447-0.061c0.143-0.04,0.272-0.099,0.386-0.176
					c0.114-0.077,0.204-0.175,0.27-0.292c0.066-0.118,0.1-0.254,0.1-0.408c0-0.147-0.026-0.279-0.077-0.397
					c-0.051-0.117-0.138-0.227-0.259-0.331c-0.121-0.103-0.279-0.202-0.474-0.298c-0.195-0.095-0.436-0.195-0.723-0.298
					l-0.485-0.176c-0.213-0.073-0.428-0.173-0.645-0.298c-0.217-0.125-0.414-0.276-0.59-0.452c-0.176-0.176-0.322-0.384-0.436-0.623
					c-0.114-0.239-0.171-0.509-0.171-0.81c0-0.309,0.061-0.597,0.182-0.866c0.121-0.268,0.294-0.503,0.518-0.706
					c0.224-0.202,0.493-0.36,0.805-0.474c0.312-0.114,0.66-0.171,1.042-0.171c0.397,0,0.741,0.053,1.031,0.16
					c0.29,0.107,0.537,0.243,0.739,0.408c0.202,0.165,0.365,0.348,0.491,0.546c0.125,0.199,0.217,0.386,0.276,0.563l-1.312,0.551
					c-0.074-0.221-0.208-0.419-0.403-0.596c-0.195-0.176-0.462-0.265-0.799-0.265c-0.324,0-0.592,0.075-0.805,0.226
					c-0.213,0.151-0.32,0.348-0.32,0.59c0,0.235,0.103,0.436,0.309,0.601c0.206,0.165,0.533,0.325,0.982,0.48l0.496,0.165
					c0.316,0.111,0.605,0.237,0.866,0.381c0.261,0.143,0.485,0.314,0.673,0.513c0.187,0.199,0.331,0.425,0.43,0.678
					c0.099,0.254,0.149,0.546,0.149,0.877c0,0.412-0.083,0.767-0.248,1.064c-0.165,0.298-0.377,0.542-0.634,0.734
					c-0.258,0.191-0.548,0.335-0.872,0.43C287.422,440.797,287.105,440.845,286.797,440.845z"/>
			</g>
			<g>
				<path style="fill:#FFFFFF;" d="M321.394,439.168l4.004-4.985h-3.827v-1.412h5.559v1.5l-3.96,4.985h4.004v1.412h-5.779V439.168z"
					/>
				<path style="fill:#FFFFFF;" d="M328.409,432.771h1.489v7.897h-1.489V432.771z"/>
				<path style="fill:#FFFFFF;" d="M331.486,440.669v-7.897h2.779c0.375,0,0.726,0.061,1.053,0.182
					c0.327,0.121,0.612,0.292,0.855,0.513s0.434,0.483,0.574,0.789c0.14,0.305,0.209,0.642,0.209,1.009
					c0,0.375-0.07,0.715-0.209,1.02c-0.14,0.305-0.331,0.568-0.574,0.789c-0.243,0.221-0.528,0.392-0.855,0.513
					c-0.327,0.121-0.678,0.182-1.053,0.182h-1.29v2.901H331.486z M334.288,436.356c0.389,0,0.684-0.111,0.882-0.331
					c0.199-0.22,0.298-0.474,0.298-0.761c0-0.14-0.024-0.276-0.072-0.408c-0.048-0.132-0.121-0.248-0.221-0.347
					c-0.099-0.099-0.222-0.178-0.37-0.237c-0.147-0.059-0.32-0.089-0.518-0.089h-1.312v2.173H334.288z"/>
			</g>
		</g>
		<g style="opacity:0.61;">
			<path style="fill:#FFFFFF;" d="M300.133,433.27h9.067v2.242h-9.067V433.27z M300.133,437.136h9.067v2.243h-9.067V437.136z"/>
		</g>
	</g>
	<g style="opacity:0.61;">
		<path style="fill:#FFFFFF;" d="M156.756,478.878h1.607c1.263,0,2.114,0.812,2.114,1.974c0,1.161-0.851,1.973-2.114,1.973h-1.607
			V478.878z M158.34,482.464c1.049,0,1.725-0.665,1.725-1.612c0-0.947-0.677-1.613-1.725-1.613h-1.167v3.225H158.34z"/>
		<path style="fill:#FFFFFF;" d="M165.139,480.851c0-1.15,0.879-2.007,2.075-2.007c1.184,0,2.069,0.851,2.069,2.007
			c0,1.156-0.885,2.007-2.069,2.007C166.019,482.858,165.139,482.002,165.139,480.851z M168.866,480.851
			c0-0.942-0.705-1.635-1.652-1.635c-0.953,0-1.663,0.693-1.663,1.635c0,0.941,0.71,1.635,1.663,1.635
			C168.162,482.486,168.866,481.793,168.866,480.851z"/>
		<path style="fill:#FFFFFF;" d="M179.596,478.878l-1.331,3.947h-0.44l-1.156-3.366l-1.161,3.366h-0.434l-1.331-3.947h0.429
			l1.139,3.394l1.178-3.394h0.389l1.161,3.411l1.156-3.411H179.596z"/>
		<path style="fill:#FFFFFF;" d="M187.731,478.878v3.947h-0.344l-2.537-3.202v3.202h-0.417v-3.947h0.344l2.543,3.203v-3.203H187.731
			z"/>
		<path style="fill:#FFFFFF;" d="M193.093,478.878h0.417v3.586h2.21v0.361h-2.627V478.878z"/>
		<path style="fill:#FFFFFF;" d="M200.061,480.851c0-1.15,0.879-2.007,2.075-2.007c1.184,0,2.069,0.851,2.069,2.007
			c0,1.156-0.885,2.007-2.069,2.007C200.941,482.858,200.061,482.002,200.061,480.851z M203.788,480.851
			c0-0.942-0.705-1.635-1.652-1.635c-0.953,0-1.663,0.693-1.663,1.635c0,0.941,0.71,1.635,1.663,1.635
			C203.083,482.486,203.788,481.793,203.788,480.851z"/>
		<path style="fill:#FFFFFF;" d="M211.636,481.77h-2.199l-0.474,1.054h-0.434l1.804-3.947h0.412l1.804,3.947h-0.44L211.636,481.77z
			 M211.484,481.432l-0.947-2.12l-0.947,2.12H211.484z"/>
		<path style="fill:#FFFFFF;" d="M217.28,478.878h1.607c1.263,0,2.114,0.812,2.114,1.974c0,1.161-0.851,1.973-2.114,1.973h-1.607
			V478.878z M218.864,482.464c1.049,0,1.725-0.665,1.725-1.612c0-0.947-0.677-1.613-1.725-1.613h-1.167v3.225H218.864z"/>
		<path style="fill:#FFFFFF;" d="M234.041,481.77h-2.199l-0.474,1.054h-0.434l1.804-3.947h0.412l1.804,3.947h-0.44L234.041,481.77z
			 M233.889,481.432l-0.947-2.12l-0.947,2.12H233.889z"/>
		<path style="fill:#FFFFFF;" d="M239.685,478.878h0.417v3.586h2.21v0.361h-2.627V478.878z"/>
		<path style="fill:#FFFFFF;" d="M247.082,478.878h0.417v3.586h2.21v0.361h-2.627V478.878z"/>
		<path style="fill:#FFFFFF;" d="M260.449,479.239v1.551h2.041v0.361h-2.041v1.675h-0.417v-3.947h2.706v0.361H260.449z"/>
		<path style="fill:#FFFFFF;" d="M267.678,478.878h0.417v3.947h-0.417V478.878z"/>
		<path style="fill:#FFFFFF;" d="M273.456,478.878h0.417v3.586h2.21v0.361h-2.627V478.878z"/>
		<path style="fill:#FFFFFF;" d="M283.644,482.464v0.361h-2.791v-3.947h2.706v0.361h-2.289v1.404h2.041v0.355h-2.041v1.466H283.644z
			"/>
		<path style="fill:#FFFFFF;" d="M294.672,479.239v1.551h2.041v0.361h-2.041v1.675h-0.417v-3.947h2.706v0.361H294.672z"/>
		<path style="fill:#FFFFFF;" d="M301.5,480.851c0-1.15,0.879-2.007,2.075-2.007c1.184,0,2.069,0.851,2.069,2.007
			c0,1.156-0.885,2.007-2.069,2.007C302.379,482.858,301.5,482.002,301.5,480.851z M305.226,480.851
			c0-0.942-0.705-1.635-1.652-1.635c-0.953,0-1.663,0.693-1.663,1.635c0,0.941,0.71,1.635,1.663,1.635
			C304.522,482.486,305.226,481.793,305.226,480.851z"/>
		<path style="fill:#FFFFFF;" d="M313.351,482.825l-0.902-1.269c-0.102,0.011-0.203,0.017-0.316,0.017h-1.06v1.252h-0.417v-3.947
			h1.477c1.004,0,1.613,0.507,1.613,1.353c0,0.62-0.327,1.054-0.902,1.24l0.964,1.353H313.351z M313.328,480.231
			c0-0.632-0.417-0.992-1.207-0.992h-1.048v1.979h1.048C312.911,481.218,313.328,480.851,313.328,480.231z"/>
		<path style="fill:#FFFFFF;" d="M322.907,478.878v3.947h-0.4v-3.158l-1.551,2.656h-0.197l-1.551-2.639v3.14h-0.4v-3.947h0.344
			l1.714,2.926l1.697-2.926H322.907z"/>
		<path style="fill:#FFFFFF;" d="M330.744,481.77h-2.199l-0.473,1.054h-0.434l1.804-3.947h0.411l1.804,3.947h-0.44L330.744,481.77z
			 M330.592,481.432l-0.947-2.12l-0.947,2.12H330.592z"/>
		<path style="fill:#FFFFFF;" d="M336.957,479.239h-1.387v-0.361h3.192v0.361h-1.387v3.586h-0.417V479.239z"/>
		<path style="fill:#FFFFFF;" d="M343.063,482.346l0.164-0.321c0.282,0.276,0.784,0.479,1.302,0.479c0.739,0,1.06-0.31,1.06-0.699
			c0-1.083-2.43-0.417-2.43-1.877c0-0.581,0.451-1.083,1.455-1.083c0.446,0,0.908,0.13,1.224,0.35l-0.141,0.333
			c-0.338-0.22-0.733-0.327-1.083-0.327c-0.722,0-1.043,0.321-1.043,0.716c0,1.083,2.43,0.429,2.43,1.866
			c0,0.581-0.462,1.077-1.472,1.077C343.937,482.858,343.356,482.65,343.063,482.346z"/>
	</g>
</g>
<g>
</g>
<g>
	<path d="M205.804,282.516c0,4.93,0.159,9.867-0.042,14.789c-0.233,5.711-0.267,11.422-0.353,17.133
		c-0.016,1.077-0.457,1.514-1.489,1.513c-8.782-0.006-17.564-0.011-26.346-0.001c-1.449,0.002-1.54-0.932-1.538-2.019
		c0.011-6.274,0.007-12.548,0.007-18.822c-0.001-18.045-0.004-36.089-0.003-54.134c0-2.693,0.007-2.69,2.655-2.683
		c2.334,0.006,4.669,0.004,7.003,0.006c0.876,0.001,1.683-0.012,1.707-1.255c0.023-1.229-0.722-1.306-1.637-1.301
		c-2.612,0.013-5.226-0.047-7.837,0.023c-1.328,0.035-1.914-0.372-1.905-1.786c0.045-6.718-0.002-13.436,0.032-20.154
		c0.012-2.523,1.138-3.457,4.014-3.458c20.955-0.005,41.909-0.008,62.864,0c5.307,0.002,4.559-0.535,4.566,4.644
		c0.025,19.656,0.011,39.311,0.009,58.967c0,3.454-1.619,5.056-5.118,5.075c-1.556,0.008-3.114,0.04-4.669-0.009
		c-1.191-0.037-1.621,0.302-1.216,1.56c1.772,5.492,3.494,11.001,5.219,16.508c1.791,5.718,3.554,11.445,5.353,17.16
		c0.412,1.309-0.119,1.695-1.358,1.692c-9.616-0.018-19.232-0.025-28.848,0.007c-1.354,0.004-2.004-0.571-2.328-1.84
		c-1.962-7.686-3.959-15.364-5.956-23.041c-0.751-2.889-1.532-5.77-2.3-8.655C206.13,282.462,205.967,282.489,205.804,282.516z
		 M218.713,244.661c0-3.88-0.033-7.761,0.019-11.64c0.016-1.228-0.436-1.668-1.653-1.647c-3.217,0.053-6.437,0.058-9.654,0.003
		c-1.262-0.021-1.619,0.511-1.614,1.691c0.032,7.76,0.032,15.52,0.001,23.28c-0.005,1.214,0.444,1.686,1.66,1.668
		c3.051-0.045,6.106-0.08,9.155,0.015c1.564,0.049,2.165-0.427,2.121-2.064C218.646,252.202,218.715,248.431,218.713,244.661z"/>
	<path d="M401.573,249.45c0,10.934-0.05,21.869,0.031,32.803c0.024,3.208-0.391,6.165-1.787,9.151
		c-3.877,8.292-7.484,16.711-11.132,25.108c-0.538,1.237-1.282,1.599-2.552,1.552c-6.931-0.252-13.864-0.458-20.797-0.652
		c-2.551-0.071-5.105-0.045-7.657-0.097c-5.213-0.108-10.425-0.277-15.639-0.332c-1.272-0.013-1.765-0.676-2.123-1.682
		c-1.71-4.809-3.424-9.616-5.134-14.425c-0.13-0.366-0.202-0.757-0.369-1.104c-3.216-6.673-3.823-13.72-3.659-21.048
		c0.281-12.593,0.091-25.197,0.062-37.796c-0.004-1.646,0.323-3.145,0.974-4.664c3.366-7.854,6.7-15.721,9.932-23.631
		c0.692-1.693,1.583-2.331,3.443-2.324c17.891,0.066,35.782,0.039,53.673,0.041c2.73,0,2.733,0.006,2.734,2.801
		C401.574,225.25,401.573,237.35,401.573,249.45z M372.406,263.473c0-10.041-0.029-20.082,0.03-30.123
		c0.009-1.537-0.462-2.037-1.996-1.987c-3.107,0.102-6.219,0.057-9.329,0.02c-1.13-0.013-1.576,0.408-1.581,1.563
		c-0.026,6.374,0.292,12.742,0.224,19.12c-0.065,6.145,0.279,12.295,0.426,18.443c0.189,7.87-0.242,15.747,0.306,23.615
		c0.087,1.254,0.405,1.794,1.736,1.758c2.719-0.074,5.445-0.105,8.162,0.01c1.656,0.07,2.058-0.578,2.05-2.129
		C372.379,283.666,372.406,273.569,372.406,263.473z"/>
	<path d="M284.028,228.089c1.679-3.306,3.311-6.51,4.935-9.717c1.128-2.229,2.278-4.447,3.351-6.702
		c0.471-0.99,1.145-1.34,2.225-1.336c9.003,0.029,18.006,0.009,27.01,0.022c1.909,0.003,2.022,0.207,1.262,1.861
		c-4.774,10.388-9.528,20.785-14.337,31.156c-0.759,1.637-0.925,3.156-0.504,4.958c2.965,12.691,5.815,25.408,8.7,38.117
		c2.149,9.465,4.296,18.931,6.447,28.395c0.417,1.835,0.273,2.094-1.578,2.101c-6.78,0.026-13.561-0.016-20.34,0.032
		c-1.486,0.01-2.15-0.639-2.589-1.996c-3.502-10.824-7.057-21.63-10.603-32.44c-1.937-5.904-3.887-11.805-5.833-17.706
		c-0.1-0.303-0.223-0.598-0.662-0.878c0,0.57,0,1.14,0,1.71c0,15.766,0,31.533,0,47.299c0,2.994-0.002,2.996-3.071,2.996
		c-7.336,0.001-14.672,0.005-22.008-0.003c-2.155-0.003-2.29-0.132-2.29-2.247c-0.006-33.698-0.007-67.396-0.004-101.094
		c0-2.128,0.137-2.26,2.277-2.262c8.058-0.008,16.117-0.009,24.175,0.001c2.289,0.003,3.03,0.869,3.004,3.154
		c-0.051,4.496-0.031,8.993-0.029,13.489C283.566,227.308,283.473,227.67,284.028,228.089z"/>
	<path d="M441.808,263.191c1.578-4.841,3.044-9.723,4.777-14.508c1.048-2.894,1.249-5.8,1.226-8.814
		c-0.063-8.272-0.029-16.545-0.034-24.817c0-0.555,0.018-1.112-0.023-1.665c-0.221-3.036-0.226-3.037,2.769-3.038
		c6.447-0.001,12.894-0.01,19.34,0.011c0.827,0.003,1.675,0.068,2.474,0.263c2.067,0.504,2.699,1.508,2.397,3.654
		c-0.235,1.671,0.122,3.317,0.167,4.975c0.338,12.44-0.19,24.828-1.737,37.197c-1.4,11.19-3.403,22.257-5.909,33.234
		c-1.926,8.437-4.283,16.766-6.915,25.016c-0.535,1.676-1.34,2.321-3.177,2.305c-10.226-0.093-20.453-0.085-30.679-0.006
		c-1.774,0.013-2.686-0.558-3.349-2.208c-3.54-8.807-5.543-18.015-7.351-27.281c-1.859-9.528-3.249-19.129-4.583-28.741
		c-1.182-8.515-2.062-17.065-2.984-25.609c-0.654-6.061-1.136-12.141-1.709-18.212c-0.286-3.027,1.104-4.587,4.198-4.592
		c7.448-0.014,14.895-0.011,22.343-0.001c2.032,0.003,2.186,0.14,2.164,2.187c-0.086,8.101-0.16,16.202-0.321,24.301
		c-0.067,3.352,0.142,6.599,1.256,9.827c1.879,5.448,3.508,10.982,5.242,16.48C441.529,263.162,441.669,263.177,441.808,263.191z"/>
	<path d="M101.064,277.27c0-10.936,0.191-21.877-0.091-32.806c-0.119-4.589,1.183-8.568,3.012-12.582
		c2.599-5.706,5.065-11.474,7.58-17.218c0.155-0.354,0.272-0.729,0.367-1.104c0.56-2.207,1.733-3.186,4.002-3.202
		c3.945-0.027,7.891-0.006,11.837-0.01c12.504-0.011,25.007-0.019,37.511-0.049c1.049-0.003,2.098-0.165,3.146-0.258
		c2.119-0.189,3.419,0.927,3.425,3.053c0.021,7.439,0.016,14.878-0.004,22.316c-0.002,0.662,0.271,1.591-0.777,1.748
		c-1.105,0.166-1.048-0.716-1.091-1.436c-0.063-1.038-0.84-0.849-1.478-0.851c-3.221-0.011-6.444-0.077-9.662,0.024
		c-1.379,0.043-2.006-0.345-1.824-1.749c0.187-1.446-0.553-1.852-1.861-1.743c-0.828,0.069-1.666,0.024-2.5,0.01
		c-1.378-0.024-2.955,0.42-3.397-1.658c-0.077-0.36-0.75-0.611-1.169-0.879c-1.382-0.885-2.957-1.53-3.485-3.346
		c-0.168-0.577-0.767-0.951-1.333-1.203c-1.633-0.729-3.362-1.179-5.134-1.266c-2.263-0.111-4.781,2.906-4.466,5.231
		c0.325,2.407,0.276,4.675-1.941,6.303c-0.672,0.494-1.27,0.751-2.12,0.281c-1.688-0.934-3.239-0.414-4.604,0.748
		c-1.016,0.864-1.923,1.843-2.623,2.998c-0.286,0.472-0.553,1.152-1.092,1.198c-1.751,0.151-1.543,1.446-1.63,2.564
		c-0.107,1.379-0.156,2.762-0.229,4.144c-0.021,0.393-0.05,0.795-0.368,1.071c-3.83,3.322-3.687,7.753-3.506,12.235
		c0.08,1.973,0.911,3.199,2.805,3.754c1.483,0.435,2.02,1.332,1.842,2.979c-0.5,4.626-0.851,9.27-1.158,13.914
		c-0.149,2.263-0.073,4.54-0.089,6.812c-0.002,0.215-0.002,0.48,0.112,0.64c1.657,2.317,0.784,4.266-0.829,6.147
		c-1.287,1.501-1.465,3.462-1.985,5.251c-1.347,4.634-2.513,9.321-3.812,13.969c-0.32,1.146-0.128,1.497,1.142,1.659
		c3.926,0.503,6.759-0.235,7.988-4.665c0.757-2.727,2.488-5.181,3.747-7.775c0.359-0.739,0.922-1.2,1.575-1.655
		c0.998-0.696,1.994-1.426,2.855-2.278c1.249-1.236,2.054-2.653,1.907-4.582c-0.185-2.431-0.044-4.872,0.555-7.273
		c0.261-1.045,0.495-1.44,1.409-0.495c1.699,1.756,3.432,3.48,5.174,5.193c0.662,0.651,0.734,1.41,0.726,2.282
		c-0.057,6.383-0.033,12.767-0.133,19.149c-0.025,1.605,0.505,2.179,2.105,2.085c1.883-0.111,3.781-0.098,5.666-0.003
		c1.447,0.073,2.003-0.438,1.94-1.905c-0.09-2.106-0.025-4.218-0.02-6.327c0.01-4.539-0.255-9.088,1.049-13.543
		c0.497-1.699,0.121-3.444-0.682-5.011c-2.154-4.205-3.637-8.696-5.61-12.978c-0.742-1.611-1.468-3.232-2.124-4.88
		c-0.934-2.345-0.471-4.925,2.527-5.325c0.852-0.114,1.178-0.753,1.422-1.459c0.619-1.792,0.889-3.661,1.246-5.514
		c0.271-1.407-0.284-2.245-1.516-2.751c-0.682-0.281-1.539-0.503-0.986-1.479c0.463-0.818,1.266-1.075,2.15-0.579
		c1.306,0.732,2.602,1.441,4.037,1.946c1.743,0.613,2.886,0.159,4.024-1.219c2.897-3.507,5.164-7.368,6.692-11.631
		c0.512-1.429,1.18-2.113,2.743-1.975c1.323,0.117,2.665,0.021,3.999,0.025c0.897,0.003,1.812,0.1,2.067-1.131
		c0.089-0.428,0.525-0.529,0.951-0.476c0.459,0.057,0.687,0.355,0.728,0.778c0.049,0.496,0.062,0.997,0.062,1.495
		c0.002,24.148,0.002,48.297-0.001,72.445c0,2.484-0.027,2.499-2.504,2.512c-6.668,0.034-13.342-0.087-20.003,0.144
		c-8.553,0.298-17.112,0.08-25.658,0.379c-6.773,0.237-13.553-0.033-20.319,0.454c-2.065,0.149-2.307-0.126-2.308-2.196
		C101.061,302.251,101.064,289.761,101.064,277.27z"/>
	<path d="M75.16,273.587c0,13.32,0.001,26.641-0.001,39.961c0,2.359-0.046,2.407-2.434,2.409c-8.279,0.005-16.557,0.005-24.836,0
		c-2.462-0.001-2.55-0.083-2.55-2.509c-0.005-26.474-0.005-52.949-0.007-79.423c0-2.609-0.003-2.61-2.666-2.611
		c-5.112-0.001-10.223,0.005-15.335-0.003c-2.181-0.003-2.315-0.122-2.321-2.221c-0.014-4.884-0.014-9.768,0.001-14.652
		c0.008-2.541,1.23-3.876,3.765-4.157c0.495-0.055,0.999-0.032,1.499-0.032c20.891-0.001,41.782-0.002,62.673,0
		c3.354,0,4.193,0.825,4.214,4.261c0.028,4.44,0.014,8.88,0.007,13.32c-0.004,2.697-0.7,3.441-3.475,3.466
		c-5.167,0.045-10.334,0.009-15.501,0.022c-3.39,0.008-3.027-0.312-3.029,3.041C75.155,247.501,75.16,260.544,75.16,273.587z"/>
	<path d="M454.666,202.092c-0.203,0.173-0.323,0.227-0.364,0.317c-1.564,3.454-4.224,4.443-7.915,4.07
		c-3.354-0.339-6.771-0.131-10.157-0.044c-1.436,0.037-2.377-0.386-3.137-1.65c-0.786-1.309-1.454-2.734-2.928-4.141
		c0,1.654-0.008,2.946,0.003,4.238c0.008,1.017-0.428,1.53-1.498,1.524c-3.777-0.019-7.554-0.02-11.331,0.004
		c-1.11,0.007-1.599-0.426-1.595-1.579c0.027-7.102,0.024-14.205,0.004-21.307c-0.003-1.067,0.452-1.509,1.491-1.506
		c4.888,0.011,9.776,0.01,14.664-0.002c0.998-0.002,1.601,0.534,2.192,1.273c2.565,3.206,5.238,6.326,7.747,9.573
		c1.038,1.343,1.522,0.926,2.262-0.196c2.017-3.055,4.147-6.037,6.149-9.101c0.709-1.084,1.496-1.597,2.839-1.579
		c5.165,0.067,10.332,0.068,15.497,0.003c1.54-0.019,2.168,0.42,2.151,2.069c-0.074,6.88-0.067,13.761-0.005,20.641
		c0.014,1.569-0.474,2.16-2.093,2.121c-3.831-0.092-7.665-0.068-11.497-0.01c-1.356,0.021-1.942-0.518-1.952-1.837
		C455.185,204.034,455.157,203.088,454.666,202.092z"/>
	<path d="M353.178,199.965c0,1.532,0.013,3.063-0.003,4.595c-0.022,2.062-0.17,2.22-2.147,2.226
		c-3.612,0.011-7.225-0.057-10.835,0.032c-1.559,0.038-2.159-0.425-2.142-2.059c0.068-6.716,0.059-13.433-0.007-20.149
		c-0.013-1.325,0.537-1.596,1.678-1.59c5.557,0.026,11.113,0.01,16.67,0.01c5.168,0,10.336-0.006,15.503,0.003
		c2.209,0.004,2.323,0.125,2.328,2.381c0.008,3.386,0.013,6.772-0.003,10.158c-0.009,1.995-0.172,2.136-2.218,2.153
		c-0.667,0.006-1.334-0.011-2,0.015c-0.371,0.015-0.85-0.133-1.063,0.272c-0.23,0.436,0.23,0.689,0.45,0.979
		c1.476,1.944,2.975,3.871,4.442,5.822c0.281,0.374,0.787,0.767,0.436,1.309c-0.276,0.426-0.811,0.271-1.239,0.272
		c-4.445,0.009-8.891-0.026-13.336,0.027c-1.148,0.014-1.846-0.44-2.454-1.354c-1.182-1.774-2.447-3.493-3.677-5.235
		C353.433,199.878,353.306,199.921,353.178,199.965z M356.689,187.37c-4.318,0.039-3.451-0.367-3.516,2.724
		c-0.024,1.122,0.421,1.619,1.564,1.573c1.213-0.049,2.434-0.076,3.644,0.008c1.399,0.097,1.821-0.506,1.805-1.842
		c-0.029-2.414-0.006-2.454-2.503-2.461C357.352,187.371,357.021,187.372,356.689,187.37z"/>
	<path d="M183.862,194.919c-0.001,3.33-0.038,6.66,0.018,9.988c0.022,1.312-0.362,1.927-1.79,1.902
		c-3.776-0.064-7.555-0.032-11.332-0.014c-0.925,0.004-1.683-0.109-1.701-1.278c-0.014-0.901-0.604-1.07-1.357-1.059
		c-1.111,0.016-2.224,0.041-3.332-0.011c-1.11-0.051-1.972,0.08-2.071,1.479c-0.056,0.791-0.75,0.855-1.39,0.855
		c-3.833,0.001-7.666-0.017-11.499,0.012c-1.113,0.008-1.431-0.529-1.426-1.542c0.021-4.994,0.015-9.988,0.004-14.983
		c-0.002-0.827,0.29-1.512,0.838-2.107c0.113-0.123,0.227-0.243,0.342-0.364c4.539-4.768,4.539-4.768,11.117-4.768
		c7.166,0,14.332,0.034,21.498-0.025c1.57-0.013,2.165,0.468,2.113,2.093C183.789,188.368,183.863,191.645,183.862,194.919z
		 M169.099,192.703c-0.164-6.355,1.204-5.208-5.449-5.331c-1.043-0.019-1.525,0.406-1.495,1.474
		c0.037,1.325-0.026,2.654,0.009,3.979c0.161,6.233-1.222,4.971,5.425,5.14c1.191,0.03,1.553-0.531,1.516-1.614
		C169.064,195.136,169.095,193.919,169.099,192.703z"/>
	<path d="M397.795,182.012c4.276,0,8.553,0.039,12.829-0.021c1.453-0.021,1.965,0.543,1.952,1.96
		c-0.046,4.993-0.03,9.986-0.01,14.979c0.005,1.127-0.327,2.057-1.185,2.805c-0.333,0.29-0.691,0.597-0.905,0.972
		c-1.9,3.336-4.842,3.847-8.443,3.781c-7.652-0.139-15.313,0.185-22.97,0.295c-2.169,0.031-2.225-0.058-2.226-2.252
		c-0.002-4.327,0.037-8.655-0.016-12.981c-0.017-1.355,0.298-2.435,1.282-3.435c1.437-1.46,2.759-3.038,4.06-4.624
		c0.879-1.072,1.887-1.535,3.306-1.507C389.574,182.062,393.685,182.011,397.795,182.012z M399.141,194.998
		c0-0.995,0.019-1.991-0.003-2.986c-0.117-5.386,0.933-4.54-4.807-4.652c-1.393-0.027-1.845,0.534-1.815,1.869
		c0.063,2.764-0.026,5.531,0.026,8.295c0.108,5.718-1.057,4.628,5.149,4.77c1.087,0.025,1.476-0.447,1.456-1.488
		C399.11,198.87,399.137,196.934,399.141,194.998z"/>
	<path d="M204.443,182.012c5.336,0,10.673,0.048,16.008-0.029c1.617-0.023,2.128,0.553,2.096,2.125
		c-0.081,3.885-0.086,7.774,0.003,11.659c0.036,1.58-0.595,1.997-2.066,1.983c-5.669-0.055-11.339-0.022-17.008-0.017
		c-2.27,0.002-2.27,0.008-2.277,2.339c-0.005,1.721-0.033,3.443-0.002,5.163c0.02,1.134-0.47,1.575-1.606,1.565
		c-3.89-0.037-7.782-0.033-11.672-0.004c-1.124,0.008-1.591-0.416-1.587-1.572c0.023-7.163,0.027-14.325-0.025-21.488
		c-0.011-1.475,0.704-1.749,1.963-1.741C193.66,182.032,199.052,182.012,204.443,182.012z M204.341,187.387
		c-0.721,0-1.443,0.01-2.164-0.003c-0.859-0.015-1.49,0.327-1.355,1.245c0.212,1.44-0.814,3.115,0.747,4.289
		c0.224,0.168,0.647,0.09,0.979,0.094c1.054,0.012,2.116-0.068,3.162,0.029c1.634,0.152,2.118-0.562,2.084-2.12
		C207.706,186.873,207.995,187.415,204.341,187.387z"/>
	<path d="M51.594,182.011c5.223,0,10.447,0.041,15.67-0.025c1.532-0.02,2.2,0.393,2.168,2.052c-0.079,4.174,0.121,3.686-3.708,3.702
		c-5.112,0.02-10.224-0.002-15.336,0.003c-1.969,0.002-1.964,0.085-2.054,2.275c-0.063,1.522,0.202,2.446,2.047,2.315
		c1.88-0.133,3.78,0.036,5.665-0.051c1.855-0.085,1.68,1.151,1.701,2.33c0.02,1.166,0.069,2.257-1.654,2.193
		c-2.108-0.079-4.223,0.019-6.334-0.023c-1.04-0.021-1.474,0.271-1.446,1.423c0.069,2.822,0.009,2.819,2.878,2.817
		c5.39-0.004,10.78,0.031,16.169-0.023c1.489-0.015,2.087,0.488,2.064,2.024c-0.066,4.382,0.216,3.748-3.757,3.76
		c-8.446,0.026-16.892,0.001-25.339,0.014c-1.757,0.003-3.428-0.306-4.96-1.186c-1.822-1.046-2.819-2.529-2.79-4.738
		c0.066-5.05,0.012-10.102,0.024-15.154c0.007-2.858,0.844-3.701,3.656-3.705C41.37,182.006,46.482,182.011,51.594,182.011z"/>
	<path d="M86.313,206.406c-4.111,0-8.222-0.051-12.332,0.027c-1.548,0.029-2.195-0.405-2.15-2.062
		c0.083-2.997-0.002-3.001,2.984-3.001c5.166-0.001,10.332,0.006,15.498-0.004c1.819-0.004,2.644-1.291,1.927-2.947
		c-0.363-0.839-1.111-0.598-1.735-0.6c-5.499-0.016-11-0.069-16.498,0.026c-1.667,0.029-2.024-0.463-2.195-2.133
		c-0.426-4.142,0.846-7.401,3.534-10.565c1.902-2.239,3.704-3.309,6.698-3.206c6.714,0.23,13.441,0.132,20.162,0.047
		c3.463-0.044,3.435,1.634,3.096,4.547c-0.114,0.98-1.056,0.831-1.75,0.834c-4.722,0.018-9.443,0.01-14.165,0.013
		c-2.577,0.002-2.577,0.004-2.581,2.547c-0.005,2.92-0.005,2.919,2.945,2.92c4.552,0.001,9.104,0.036,13.656-0.01
		c1.466-0.015,2.213,0.479,2.017,2.024c-0.028,0.218-0.035,0.449,0.002,0.665c0.72,4.169-0.708,7.403-4.092,9.928
		c-0.813,0.606-1.521,0.974-2.522,0.967C94.646,206.389,90.479,206.406,86.313,206.406z"/>
	<path d="M242.754,182.013c5.387-0.001,10.774,0.037,16.16-0.026c1.5-0.017,2.059,0.462,2.039,2.005
		c-0.045,3.385,0.024,3.386-3.298,3.387c-5.387,0.001-10.775,0.071-16.159-0.037c-1.882-0.038-1.995,0.869-2.033,2.343
		c-0.041,1.574,0.55,2.035,2.043,1.965c2.106-0.098,4.22,0.012,6.329-0.035c1.161-0.026,1.707,0.34,1.734,1.605
		c0.061,2.851,0.076,2.892-2.761,2.9c-2.055,0.006-4.11,0.032-6.164-0.004c-1.062-0.018-1.535,0.403-1.476,1.478
		c0.046,0.83,0.084,1.672-0.006,2.494c-0.18,1.64,0.397,2.231,2.129,2.201c5.829-0.101,11.661-0.047,17.492-0.026
		c0.68,0.003,1.608-0.309,1.938,0.527c0.388,0.981,0.402,2.112-0.019,3.087c-0.349,0.808-1.268,0.517-1.953,0.518
		c-9.329,0.017-18.659,0.012-27.988,0.011c-1.499,0-2.999-0.026-4.498,0.001c-1.089,0.02-1.625-0.377-1.621-1.552
		c0.027-7.101,0.032-14.201-0.003-21.302c-0.007-1.331,0.694-1.552,1.787-1.548C231.869,182.024,237.312,182.014,242.754,182.013z"
		/>
	<path d="M128.291,182.006c5.335,0,10.671,0.04,16.005-0.025c1.567-0.019,2.163,0.501,2.155,2.106
		c-0.019,3.658,0.046,3.66-3.588,3.662c-5.28,0.002-10.56,0.035-15.839-0.023c-1.349-0.015-1.881,0.377-1.846,1.79
		c0.081,3.329,0.091,6.663-0.003,9.991c-0.043,1.518,0.56,1.884,1.96,1.868c5.39-0.058,10.781-0.036,16.172-0.008
		c0.774,0.004,1.91-0.333,2.112,0.769c0.234,1.278,0.42,2.663-0.185,3.907c-0.224,0.46-0.896,0.355-1.391,0.355
		c-10.615,0.005-21.23-0.008-31.844,0.019c-1.242,0.003-1.655-0.505-1.651-1.69c0.025-6.995,0.026-13.99-0.006-20.984
		c-0.006-1.284,0.481-1.763,1.777-1.752c5.39,0.046,10.781,0.019,16.172,0.019C128.291,182.01,128.291,182.008,128.291,182.006z"/>
	<path d="M317.401,183.032c5.333-0.001,10.665-0.01,15.998,0.004c1.984,0.005,2.075,0.206,2.162,2.231
		c0.069,1.589-0.534,2.152-2.122,2.135c-5.832-0.061-11.666,0.047-17.497-0.062c-1.879-0.035-2.007,0.843-2.042,2.325
		c-0.036,1.535,0.46,2.07,2,1.989c2.105-0.111,4.221,0.017,6.33-0.04c1.236-0.033,1.636,0.495,1.67,1.68
		c0.1,3.433,0.136,3.432-3.296,3.433c-1.555,0-3.113,0.053-4.665-0.023c-1.324-0.065-1.777,0.513-1.751,1.769
		c0.046,2.163-0.043,4.329,0.025,6.491c0.043,1.361-0.461,1.87-1.843,1.847c-3.776-0.065-7.555-0.063-11.331-0.001
		c-1.366,0.022-1.901-0.497-1.896-1.839c0.024-6.714,0.03-13.428-0.006-20.142c-0.008-1.403,0.628-1.819,1.932-1.81
		C306.514,183.053,311.958,183.032,317.401,183.032z"/>
	<path d="M154.797,245.537c-0.191,0.988,0.446,2.265-0.648,3.033c-0.962,0.676-2.09,1.119-3.176,0.13
		c-0.802-0.731-0.945-2.601-0.237-3.521c0.64-0.831,1.4-1.56,2.316-2.098c0.407-0.239,0.766-0.749,1.319-0.435
		c0.517,0.294,0.383,0.871,0.417,1.347C154.825,244.487,154.797,244.985,154.797,245.537z"/>
</g>
</svg>
